<svg xmlns="http://www.w3.org/2000/svg" width="512" height="512" viewBox="0 0 512 512"><path fill="#D1CFCF" d="M512 472c0 22.1-17.9 40-40 40H40c-22.1 0-40-17.9-40-40V40C0 17.9 17.9 0 40 0h432c22.1 0 40 17.9 40 40v432z"/><path fill="#DC1928" d="M226.4 90.5h62.2l73.9 127.8-30.2 47.8h30.2l28.6-47.8-75.6-127.8h54.6l74.7 127.8-82.3 125.1H226.4l79-126.5z"/><path fill="#A3121D" d="M150.8 216.9l75.6 126.5 79-126.5-79-126.4z"/><path fill="#DC1928" d="M177.2 281.3l10.6 20-96.3 120.2H67.2z"/><path fill="#A3121D" d="M198.2 318.2l16.4 27.3-57.3 76h-41.4z"/><path fill="#DC1928" d="M221.6 354.3h32.1l-51.4 67.2H171z"/><path fill="#A3121D" d="M268.4 354.3h16l-52.1 67.2h-17.7z"/></svg>